<?xml version="1.0" encoding="utf-8"?>
<!-- Generator: Adobe Illustrator 22.1.0, SVG Export Plug-In . SVG Version: 6.00 Build 0)  -->
<svg version="1.1" id="Layer_1" xmlns="http://www.w3.org/2000/svg" xmlns:xlink="http://www.w3.org/1999/xlink" x="0px" y="0px"
	 viewBox="0 0 1920 1080" style="enable-background:new 0 0 1920 1080;" xml:space="preserve">
<style type="text/css">
	.st0{fill:#FECB00;}
	.st1{fill:#FFFFFF;}
</style>
<g>
	<path class="st0" d="M637.7,404.6l0.3-0.3h1.6l0.3,0.3c0.1,2.8,0.3,4.5,0.4,5.1c0.2,0.6,0.8,1.3,1.8,2c1,0.7,2.3,1.2,4,1.7
		c1.6,0.4,3.3,0.7,5,0.7c2.3,0,4.4-0.4,6.2-1.3c1.8-0.9,3.3-2.1,4.3-3.7c1-1.6,1.5-3.5,1.5-5.5c0-1.4-0.2-2.7-0.7-3.8
		c-0.5-1.1-1.2-1.9-2.1-2.6c-0.9-0.6-1.9-1.1-3-1.4c-1.1-0.3-2.8-0.7-5.1-1c-2.2-0.3-3.9-0.7-5.1-0.9c-1.2-0.3-2.5-0.7-3.7-1.3
		c-1.2-0.6-2.2-1.3-3.1-2.2c-0.8-0.9-1.5-2-2-3.3c-0.5-1.3-0.7-2.7-0.7-4.2c0-4.1,1.4-7.4,4.3-10c2.8-2.6,6.6-3.9,11.4-3.9
		c1.9,0,4,0.2,6.2,0.7c2.2,0.5,4.3,1.2,6.1,2.1l0.2,0.4c-0.5,2-0.8,4.9-0.9,8.6l-0.3,0.3H663l-0.3-0.2c0-2.6-0.1-4.3-0.2-4.9
		c-0.1-0.7-1.1-1.5-3-2.5c-1.9-1-4-1.5-6.2-1.5c-1.9,0-3.6,0.4-5.2,1.1c-1.6,0.7-2.8,1.9-3.7,3.5c-0.8,1.6-1.2,3.2-1.2,4.9
		c0,1.3,0.3,2.4,0.8,3.4c0.5,1,1.1,1.8,1.9,2.4c0.8,0.6,1.7,1,2.8,1.3c1.1,0.3,3,0.6,5.8,1c3.9,0.5,6.7,1.2,8.4,2
		c1.8,0.8,3.2,2,4.2,3.7c1.1,1.7,1.6,3.7,1.6,6.1c0,4.6-1.9,8.5-5.7,11.6c-3.8,3.1-8.4,4.6-13.8,4.6c-4.5,0-8.5-0.8-11.9-2.4
		l-0.2-0.4C637.5,412.8,637.6,409.6,637.7,404.6z"/>
	<path class="st0" d="M715.9,410.3l-1.2,3c-4.8,2.5-10,3.7-15.5,3.7c-7.9,0-14.3-2.2-19.2-6.7c-4.9-4.5-7.4-10.3-7.4-17.5
		c0-5,1.2-9.3,3.7-13c2.5-3.7,5.7-6.5,9.7-8.3c4-1.8,8.5-2.8,13.6-2.8c2.9,0,5.8,0.3,8.6,0.9c2.8,0.6,5.2,1.3,7.1,2.2l0.2,0.3
		c-0.5,1.2-1,4.2-1.4,9.1l-0.2,0.3h-1.5l-0.3-0.3l-0.3-5.6c-1.6-1.3-3.5-2.3-5.8-3c-2.3-0.7-4.6-1.1-7.1-1.1c-3.7,0-7,0.8-9.9,2.4
		c-2.9,1.6-5.2,3.9-6.8,6.9c-1.6,3-2.4,6.7-2.4,11c0,4.4,0.9,8.2,2.8,11.5c1.9,3.3,4.5,5.8,7.8,7.6c3.3,1.8,7.1,2.6,11.5,2.6
		c1.9,0,3.8-0.2,5.6-0.6c1.8-0.4,3.3-0.8,4.5-1.4c1.2-0.5,2.3-1.2,3.4-2L715.9,410.3z"/>
	<path class="st0" d="M719.7,369.6l4.1,0.1c2.7,0.1,4.4,0.1,5.3,0.1c0.7,0,3.9-0.1,9.4-0.3l0.3,0.2v1.6l-0.3,0.2
		c-1.5,0-2.7,0.1-3.5,0.2c-0.8,0.1-1.4,0.3-1.8,0.5c-0.4,0.2-0.6,0.8-0.7,1.7c-0.1,0.9-0.2,2.1-0.2,3.7l-0.1,7.5v15.1l0,6.4
		c0,2.5,0.1,4.1,0.2,4.8c0.1,0.7,0.3,1.2,0.5,1.4c0.2,0.2,0.6,0.4,1.2,0.6c0.6,0.2,2,0.3,4.4,0.4l0.3,0.2v1.6l-0.3,0.3
		c-0.1,0-2-0.1-5.8-0.2c-1.5,0-2.8-0.1-3.6-0.1c-0.7,0-3.8,0.1-9.4,0.3l-0.3-0.3v-1.6l0.3-0.2c2-0.1,3.4-0.2,4.1-0.3
		c0.7-0.1,1.1-0.3,1.4-0.5c0.2-0.2,0.4-0.6,0.6-1.3c0.1-0.7,0.2-2.2,0.2-4.5l0-6.9v-15.1l-0.1-6.4c0-2.5-0.1-4.1-0.2-4.8
		c-0.1-0.7-0.3-1.2-0.5-1.4c-0.2-0.2-0.6-0.4-1.2-0.6c-0.6-0.2-2-0.3-4.4-0.4l-0.3-0.2v-1.6L719.7,369.6z"/>
	<path class="st0" d="M742.8,369.8l0.3-0.2c7.5,0.1,12.3,0.2,14.4,0.2c7.2,0,13.5-0.1,19.1-0.2l0.2,0.2c-0.5,2.1-0.9,5.4-1.2,9.8
		l-0.2,0.3h-1.6l-0.3-0.3c0-0.2,0-0.4,0-0.5c0-1.9-0.1-3.6-0.4-5.3c-1.4-0.6-3.3-1-5.7-1.2c-2.4-0.2-4.3-0.3-5.5-0.3
		c-1.7,0-3.9,0.1-6.6,0.4L755,378l-0.1,6l-0.1,6.6c2.4,0.1,4.5,0.2,6.5,0.2c2,0,3.7-0.1,5-0.2c1.4-0.1,2.1-0.3,2.4-0.4
		c0.2-0.1,0.4-0.4,0.5-0.8c0.1-0.4,0.2-1.1,0.3-2.1l0.1-2l0.3-0.3h1.5l0.3,0.3c0,2.4-0.1,4.8-0.2,7.2l0.2,7.4l-0.3,0.3H770l-0.3-0.3
		l-0.2-2c-0.2-1.5-0.3-2.4-0.4-2.7c-0.1-0.3-0.3-0.6-0.6-0.8c-0.3-0.2-1.1-0.4-2.4-0.5s-3.1-0.2-5.4-0.2c-1.3,0-3.2,0.1-5.8,0.2
		c-0.1,1.8-0.2,4.9-0.2,9.2c0,4.6,0.1,7.9,0.2,10.1h6c5.3,0,8.6-0.1,9.9-0.2c1.3-0.1,2.6-0.4,3.8-0.9c0.2-0.5,0.5-1.7,1-3.5
		c0.4-1.8,0.7-3,0.8-3.4l0.3-0.2h1.6l0.3,0.2c-0.2,0.9-0.4,2.6-0.6,4.9c-0.2,2.3-0.3,4.3-0.3,6l-0.2,0.3c-4.2-0.1-9.6-0.2-16.4-0.2
		l-8.9-0.1c-2.1,0-4.2,0.1-6.5,0.3l-0.3-0.3v-1.1l0.3-0.3c1.3-0.7,2-1.1,2.2-1.2c0.2-0.2,0.3-2.1,0.5-5.7c0.1-3.7,0.2-6.4,0.2-8.4
		v-12l0-7.4c0-1.6,0-2.9-0.1-3.9c0-1-0.1-1.7-0.2-2.2c-0.1-0.4-0.2-0.7-0.4-0.9c-0.1-0.2-0.4-0.3-0.7-0.4c-0.3-0.1-0.9-0.2-1.6-0.3
		l-2.5-0.2l-0.3-0.2V369.8z"/>
	<path class="st0" d="M783.5,416l-0.3-0.3v-1.5l0.3-0.3c1.3,0,2.4-0.1,3.2-0.2c0.8-0.1,1.3-0.3,1.5-0.7c0.2-0.3,0.4-0.8,0.5-1.5
		c0.1-0.7,0.2-2.2,0.2-4.6c0.1-2.4,0.1-4.1,0.1-5.1v-26.4c0-1.1-0.2-1.9-0.6-2.5c-0.4-0.5-1-0.9-1.7-1c-0.7-0.1-1.9-0.2-3.6-0.2
		l-0.3-0.3V370l0.3-0.3c3,0.1,5,0.2,5.9,0.2c2.2,0,4-0.1,5.4-0.2l10.4,13.5l15.3,19.2c1.9,2.3,3.7,4.5,5.7,6.6v-25.3
		c0-0.8,0-2.5-0.1-5c-0.1-2.6-0.2-4.2-0.3-4.9c-0.1-0.7-0.3-1.2-0.6-1.4c-0.3-0.2-0.8-0.4-1.5-0.5c-0.8-0.1-1.8-0.2-3.1-0.2
		l-0.3-0.3V370l0.3-0.3c1.8,0.1,4.3,0.2,7.6,0.2c3,0,5.2-0.1,6.5-0.2l0.3,0.3v1.5l-0.3,0.3c-1.4,0-2.6,0.1-3.3,0.2
		c-0.8,0.1-1.3,0.4-1.5,0.7s-0.3,0.8-0.4,1.4c-0.1,0.6-0.2,2.1-0.2,4.5c-0.1,2.4-0.1,4.1-0.1,5.1v15.5l0,9c0,2.9,0.1,5.9,0.1,8.9
		c-1.1-0.4-3-0.8-5.7-1.4l-2.3-2.7l-7-8.5L792,376.8v25.1c0,1,0,2.8,0.1,5.4c0.1,2.6,0.2,4.1,0.3,4.7c0.1,0.5,0.3,0.9,0.4,1.1
		c0.2,0.2,0.6,0.4,1.1,0.6c0.6,0.2,1.8,0.3,3.6,0.3l0.3,0.3v1.5l-0.3,0.3c-1.1-0.2-3-0.2-5.5-0.2C788.8,415.8,785.9,415.9,783.5,416
		z"/>
	<path class="st0" d="M882.6,410.3l-1.2,3c-4.8,2.5-10,3.7-15.5,3.7c-7.9,0-14.3-2.2-19.2-6.7c-4.9-4.5-7.4-10.3-7.4-17.5
		c0-5,1.2-9.3,3.7-13c2.5-3.7,5.7-6.5,9.7-8.3c4-1.8,8.5-2.8,13.6-2.8c2.9,0,5.8,0.3,8.6,0.9c2.8,0.6,5.2,1.3,7.1,2.2l0.2,0.3
		c-0.5,1.2-1,4.2-1.4,9.1l-0.2,0.3H879l-0.3-0.3l-0.3-5.6c-1.6-1.3-3.5-2.3-5.8-3c-2.3-0.7-4.6-1.1-7.1-1.1c-3.7,0-7,0.8-9.9,2.4
		c-2.9,1.6-5.2,3.9-6.8,6.9c-1.6,3-2.4,6.7-2.4,11c0,4.4,0.9,8.2,2.8,11.5c1.9,3.3,4.5,5.8,7.8,7.6c3.3,1.8,7.1,2.6,11.5,2.6
		c1.9,0,3.8-0.2,5.6-0.6c1.8-0.4,3.3-0.8,4.5-1.4c1.2-0.5,2.3-1.2,3.4-2L882.6,410.3z"/>
	<path class="st0" d="M886.9,369.8l0.3-0.2c7.5,0.1,12.3,0.2,14.4,0.2c7.2,0,13.5-0.1,19.1-0.2l0.2,0.2c-0.5,2.1-0.9,5.4-1.2,9.8
		l-0.2,0.3h-1.6l-0.3-0.3c0-0.2,0-0.4,0-0.5c0-1.9-0.1-3.6-0.4-5.3c-1.4-0.6-3.3-1-5.7-1.2c-2.4-0.2-4.3-0.3-5.5-0.3
		c-1.7,0-3.9,0.1-6.6,0.4l-0.1,5.2l-0.1,6l-0.1,6.6c2.4,0.1,4.5,0.2,6.5,0.2c2,0,3.7-0.1,5-0.2c1.4-0.1,2.1-0.3,2.4-0.4
		c0.2-0.1,0.4-0.4,0.5-0.8c0.1-0.4,0.2-1.1,0.3-2.1l0.1-2l0.3-0.3h1.5l0.3,0.3c0,2.4-0.1,4.8-0.2,7.2l0.2,7.4l-0.3,0.3h-1.5
		l-0.3-0.3l-0.2-2c-0.2-1.5-0.3-2.4-0.4-2.7c-0.1-0.3-0.3-0.6-0.6-0.8c-0.3-0.2-1.1-0.4-2.4-0.5s-3.1-0.2-5.4-0.2
		c-1.3,0-3.2,0.1-5.8,0.2c-0.1,1.8-0.2,4.9-0.2,9.2c0,4.6,0.1,7.9,0.2,10.1h6c5.3,0,8.6-0.1,9.9-0.2c1.3-0.1,2.6-0.4,3.8-0.9
		c0.2-0.5,0.5-1.7,1-3.5c0.4-1.8,0.7-3,0.8-3.4l0.3-0.2h1.6l0.3,0.2c-0.2,0.9-0.4,2.6-0.6,4.9c-0.2,2.3-0.3,4.3-0.3,6l-0.2,0.3
		c-4.2-0.1-9.6-0.2-16.4-0.2l-8.9-0.1c-2.1,0-4.2,0.1-6.5,0.3l-0.3-0.3v-1.1l0.3-0.3c1.3-0.7,2-1.1,2.2-1.2c0.2-0.2,0.3-2.1,0.5-5.7
		c0.1-3.7,0.2-6.4,0.2-8.4v-12l0-7.4c0-1.6,0-2.9-0.1-3.9c0-1-0.1-1.7-0.2-2.2c-0.1-0.4-0.2-0.7-0.4-0.9c-0.1-0.2-0.4-0.3-0.7-0.4
		c-0.3-0.1-0.9-0.2-1.6-0.3l-2.5-0.2l-0.3-0.2V369.8z"/>
	<path class="st1" d="M981.7,369.6l0.3,0.3c-0.2,2-0.3,5.4-0.3,10.3l-0.3,0.3h-1.5l-0.3-0.3l-0.4-3c-0.2-1.6-0.3-2.6-0.4-3
		c-0.1-0.4-0.3-0.6-0.5-0.8c-0.2-0.2-0.9-0.3-2.1-0.4c-1.2-0.1-2.5-0.2-4-0.2H966c-0.2,4.9-0.3,7.8-0.3,8.5v19.1l0.1,6.4
		c0,2.5,0.1,4.1,0.2,4.8c0.1,0.7,0.3,1.2,0.5,1.4c0.2,0.2,0.6,0.4,1.2,0.6c0.6,0.2,2,0.3,4.4,0.4l0.2,0.2v1.6l-0.2,0.3
		c-5.6-0.2-8.7-0.3-9.4-0.3c-0.7,0-3.8,0.1-9.3,0.3l-0.3-0.3v-1.6l0.3-0.2c2-0.1,3.4-0.2,4.1-0.3c0.7-0.1,1.1-0.3,1.3-0.5
		c0.2-0.2,0.4-0.6,0.6-1.3c0.2-0.7,0.2-2.2,0.2-4.5l0.1-6.9v-19.1c0-0.3-0.1-3.2-0.3-8.5h-4.9c-2,0-3.7,0-5.2,0.1
		c-1.5,0.1-2.3,0.3-2.5,0.7c-0.2,0.4-0.4,1.5-0.6,3.5l-0.3,3l-0.3,0.3H944l-0.3-0.3c0-5.3-0.1-8.7-0.3-10.3l0.3-0.3
		c3.8,0.2,10.1,0.3,18.9,0.3C971.7,369.8,978,369.8,981.7,369.6z"/>
	<path class="st1" d="M985.6,369.8l0.3-0.2c7.5,0.1,12.3,0.2,14.4,0.2c7.2,0,13.5-0.1,19.1-0.2l0.2,0.2c-0.5,2.1-0.9,5.4-1.2,9.8
		l-0.2,0.3h-1.6l-0.3-0.3c0-0.2,0-0.4,0-0.5c0-1.9-0.1-3.6-0.4-5.3c-1.4-0.6-3.3-1-5.7-1.2c-2.4-0.2-4.3-0.3-5.5-0.3
		c-1.7,0-3.9,0.1-6.6,0.4l-0.1,5.2l-0.1,6l-0.1,6.6c2.4,0.1,4.5,0.2,6.5,0.2c2,0,3.7-0.1,5-0.2s2.1-0.3,2.4-0.4
		c0.2-0.1,0.4-0.4,0.5-0.8c0.1-0.4,0.2-1.1,0.3-2.1l0.1-2l0.3-0.3h1.5l0.3,0.3c0,2.4-0.1,4.8-0.2,7.2l0.2,7.4l-0.3,0.3h-1.5
		l-0.3-0.3l-0.2-2c-0.2-1.5-0.3-2.4-0.4-2.7c-0.1-0.3-0.3-0.6-0.6-0.8c-0.3-0.2-1.1-0.4-2.4-0.5s-3.1-0.2-5.4-0.2
		c-1.3,0-3.2,0.1-5.8,0.2c-0.1,1.8-0.2,4.9-0.2,9.2c0,4.6,0.1,7.9,0.2,10.1h6c5.3,0,8.6-0.1,9.9-0.2c1.3-0.1,2.6-0.4,3.8-0.9
		c0.2-0.5,0.5-1.7,1-3.5c0.4-1.8,0.7-3,0.8-3.4l0.3-0.2h1.6l0.3,0.2c-0.2,0.9-0.4,2.6-0.6,4.9c-0.2,2.3-0.3,4.3-0.3,6l-0.2,0.3
		c-4.2-0.1-9.6-0.2-16.4-0.2l-8.9-0.1c-2.1,0-4.2,0.1-6.5,0.3l-0.3-0.3v-1.1l0.3-0.3c1.3-0.7,2-1.1,2.2-1.2c0.2-0.2,0.3-2.1,0.5-5.7
		c0.1-3.7,0.2-6.4,0.2-8.4v-12l0-7.4c0-1.6,0-2.9-0.1-3.9c0-1-0.1-1.7-0.2-2.2c-0.1-0.4-0.2-0.7-0.4-0.9c-0.1-0.2-0.4-0.3-0.7-0.4
		c-0.3-0.1-0.9-0.2-1.6-0.3l-2.5-0.2l-0.3-0.2V369.8z"/>
	<path class="st1" d="M1069.8,410.3l-1.2,3c-4.8,2.5-10,3.7-15.5,3.7c-7.9,0-14.3-2.2-19.2-6.7c-4.9-4.5-7.4-10.3-7.4-17.5
		c0-5,1.2-9.3,3.7-13c2.5-3.7,5.7-6.5,9.7-8.3c4-1.8,8.5-2.8,13.6-2.8c2.9,0,5.8,0.3,8.6,0.9c2.8,0.6,5.2,1.3,7.1,2.2l0.2,0.3
		c-0.5,1.2-1,4.2-1.4,9.1l-0.2,0.3h-1.5l-0.3-0.3l-0.3-5.6c-1.6-1.3-3.5-2.3-5.8-3c-2.3-0.7-4.6-1.1-7.1-1.1c-3.7,0-7,0.8-9.9,2.4
		c-2.9,1.6-5.2,3.9-6.8,6.9c-1.6,3-2.4,6.7-2.4,11c0,4.4,0.9,8.2,2.8,11.5c1.9,3.3,4.5,5.8,7.8,7.6c3.3,1.8,7.1,2.6,11.5,2.6
		c1.9,0,3.8-0.2,5.6-0.6c1.8-0.4,3.3-0.8,4.5-1.4c1.2-0.5,2.3-1.2,3.4-2L1069.8,410.3z"/>
	<path class="st1" d="M1073.6,369.6c5.6,0.2,8.7,0.3,9.4,0.3c0.7,0,3.8-0.1,9.4-0.3l0.3,0.2v1.6l-0.3,0.2c-1.5,0-2.7,0.1-3.5,0.2
		c-0.8,0.1-1.4,0.3-1.8,0.5c-0.4,0.2-0.6,0.8-0.7,1.7c-0.1,0.9-0.2,2.1-0.2,3.7l-0.1,7.5v4.6c4.8,0.1,9.3,0.2,13.6,0.2
		c5.8,0,10.3-0.1,13.3-0.2v-4.6l-0.1-6.4c0-2.5-0.1-4.1-0.2-4.8c-0.1-0.7-0.3-1.2-0.5-1.4c-0.2-0.2-0.6-0.4-1.2-0.6
		c-0.6-0.2-2.1-0.3-4.4-0.4l-0.2-0.2v-1.6l0.2-0.2c5.6,0.2,8.7,0.3,9.4,0.3c0.7,0,3.9-0.1,9.4-0.3l0.3,0.2v1.6l-0.3,0.2
		c-1.5,0-2.7,0.1-3.5,0.2c-0.8,0.1-1.4,0.3-1.8,0.5c-0.4,0.2-0.6,0.8-0.7,1.7c-0.1,0.9-0.2,2.1-0.2,3.7l-0.1,7.5v15.1l0.1,6.4
		c0,2.5,0.1,4.1,0.2,4.8c0.1,0.7,0.3,1.2,0.5,1.4c0.2,0.2,0.6,0.4,1.2,0.6c0.6,0.2,2,0.3,4.4,0.4l0.3,0.2v1.6l-0.3,0.3
		c-5.6-0.2-8.7-0.3-9.4-0.3c-0.7,0-3.8,0.1-9.4,0.3l-0.2-0.3v-1.6l0.2-0.2c2-0.1,3.4-0.2,4.1-0.3c0.7-0.1,1.1-0.3,1.3-0.5
		c0.2-0.2,0.4-0.6,0.6-1.3c0.2-0.7,0.2-2.2,0.2-4.5l0.1-6.9v-7.5c-6.5-0.1-11-0.2-13.6-0.2c-2.7,0-7.1,0.1-13.3,0.2v7.5l0,6.4
		c0,2.5,0.1,4.1,0.2,4.8c0.1,0.7,0.3,1.2,0.5,1.4c0.2,0.2,0.6,0.4,1.2,0.6c0.6,0.2,2,0.3,4.4,0.4l0.3,0.2v1.6l-0.3,0.3
		c-5.6-0.2-8.7-0.3-9.4-0.3c-0.7,0-3.8,0.1-9.4,0.3l-0.3-0.3v-1.6l0.3-0.2c2-0.1,3.4-0.2,4.1-0.3s1.1-0.3,1.4-0.5
		c0.2-0.2,0.4-0.6,0.6-1.3c0.1-0.7,0.2-2.2,0.2-4.5l0-6.9v-15.1l-0.1-6.4c0-2.5-0.1-4.1-0.2-4.8c-0.1-0.7-0.3-1.2-0.5-1.4
		c-0.2-0.2-0.6-0.4-1.2-0.6c-0.6-0.2-2-0.3-4.4-0.4l-0.3-0.2v-1.6L1073.6,369.6z"/>
</g>
</svg>
